<?xml version="1.0" encoding="UTF-8" standalone="no"?>
<!DOCTYPE svg PUBLIC "-//W3C//DTD SVG 1.1//EN"
 "http://www.w3.org/Graphics/SVG/1.1/DTD/svg11.dtd">
<!-- Generated by graphviz version 2.38.0 (20140413.2041)
 -->
<!-- Title: controllers_diagram Pages: 1 -->
<svg width="382pt" height="342pt"
 viewBox="0.00 0.00 382.00 342.00" xmlns="http://www.w3.org/2000/svg" xmlns:xlink="http://www.w3.org/1999/xlink">
<g id="graph0" class="graph" transform="scale(1 1) rotate(0) translate(68 226)">
<title>controllers_diagram</title>
<polygon fill="none" stroke="none" points="-68,116 -68,-226 314,-226 314,116 -68,116"/>
<!-- _diagram_info -->
<g id="node1" class="node"><title>_diagram_info</title>
<text text-anchor="start" x="104" y="32.4" font-family="Times,serif" font-size="13.00">Controllers diagram</text>
<text text-anchor="start" x="104" y="46.4" font-family="Times,serif" font-size="13.00">Date: Sep 29 2018 &#45; 15:41</text>
<text text-anchor="start" x="104" y="60.4" font-family="Times,serif" font-size="13.00">Migration version: 20180915183741</text>
<text text-anchor="start" x="104" y="74.4" font-family="Times,serif" font-size="13.00">Generated by RailRoady 1.5.3</text>
<text text-anchor="start" x="104" y="88.4" font-family="Times,serif" font-size="13.00">http://railroady.prestonlee.com</text>
</g>
<!-- ApplicationController -->
<g id="node2" class="node"><title>ApplicationController</title>
<path fill="none" stroke="black" d="M108,-17C108,-17 220,-17 220,-17 226,-17 232,-23 232,-29 232,-29 232,-99 232,-99 232,-105 226,-111 220,-111 220,-111 108,-111 108,-111 102,-111 96,-105 96,-99 96,-99 96,-29 96,-29 96,-23 102,-17 108,-17"/>
<text text-anchor="middle" x="164" y="-95.8" font-family="Times,serif" font-size="14.00">ApplicationController</text>
<polyline fill="none" stroke="black" points="96,-88 232,-88 "/>
<polyline fill="none" stroke="black" points="96,-64 232,-64 "/>
<polyline fill="none" stroke="black" points="96,-40 232,-40 "/>
<text text-anchor="start" x="104" y="-24.8" font-family="Times,serif" font-size="14.00">_layout</text>
</g>
<!-- HomeController -->
<g id="node3" class="node"><title>HomeController</title>
<path fill="none" stroke="black" d="M-36,-128.5C-36,-128.5 46,-128.5 46,-128.5 52,-128.5 58,-134.5 58,-140.5 58,-140.5 58,-209.5 58,-209.5 58,-215.5 52,-221.5 46,-221.5 46,-221.5 -36,-221.5 -36,-221.5 -42,-221.5 -48,-215.5 -48,-209.5 -48,-209.5 -48,-140.5 -48,-140.5 -48,-134.5 -42,-128.5 -36,-128.5"/>
<text text-anchor="middle" x="5" y="-206.3" font-family="Times,serif" font-size="14.00">HomeController</text>
<polyline fill="none" stroke="black" points="-48,-198.5 58,-198.5 "/>
<text text-anchor="start" x="-40" y="-183.3" font-family="Times,serif" font-size="14.00">index</text>
<polyline fill="none" stroke="black" points="-48,-175.5 58,-175.5 "/>
<polyline fill="none" stroke="black" points="-48,-151.5 58,-151.5 "/>
<text text-anchor="start" x="-40" y="-136.3" font-family="Times,serif" font-size="14.00">_layout</text>
</g>
<!-- ProdutosController -->
<g id="node4" class="node"><title>ProdutosController</title>
<path fill="none" stroke="black" d="M-52,111.5C-52,111.5 44,111.5 44,111.5 50,111.5 56,105.5 56,99.5 56,99.5 56,-89.5 56,-89.5 56,-95.5 50,-101.5 44,-101.5 44,-101.5 -52,-101.5 -52,-101.5 -58,-101.5 -64,-95.5 -64,-89.5 -64,-89.5 -64,99.5 -64,99.5 -64,105.5 -58,111.5 -52,111.5"/>
<text text-anchor="middle" x="-4" y="-86.3" font-family="Times,serif" font-size="14.00">ProdutosController</text>
<polyline fill="none" stroke="black" points="-64,-78.5 56,-78.5 "/>
<text text-anchor="start" x="-56" y="-63.3" font-family="Times,serif" font-size="14.00">create</text>
<text text-anchor="start" x="-56" y="-48.3" font-family="Times,serif" font-size="14.00">destroy</text>
<text text-anchor="start" x="-56" y="-33.3" font-family="Times,serif" font-size="14.00">edit</text>
<text text-anchor="start" x="-56" y="-18.3" font-family="Times,serif" font-size="14.00">index</text>
<text text-anchor="start" x="-56" y="-3.3" font-family="Times,serif" font-size="14.00">new</text>
<text text-anchor="start" x="-56" y="11.7" font-family="Times,serif" font-size="14.00">show</text>
<text text-anchor="start" x="-56" y="26.7" font-family="Times,serif" font-size="14.00">update</text>
<polyline fill="none" stroke="black" points="-64,34.5 56,34.5 "/>
<polyline fill="none" stroke="black" points="-64,58.5 56,58.5 "/>
<text text-anchor="start" x="-56" y="73.7" font-family="Times,serif" font-size="14.00">_layout</text>
<text text-anchor="start" x="-56" y="88.7" font-family="Times,serif" font-size="14.00">produto_params</text>
<text text-anchor="start" x="-56" y="103.7" font-family="Times,serif" font-size="14.00">set_produto</text>
</g>
</g>
</svg>
