<?xml version="1.0" encoding="UTF-8" standalone="no"?>
<!DOCTYPE svg PUBLIC "-//W3C//DTD SVG 1.1//EN"
 "http://www.w3.org/Graphics/SVG/1.1/DTD/svg11.dtd">
<!-- Generated by graphviz version 2.38.0 (20140413.2041)
 -->
<!-- Title: models_diagram Pages: 1 -->
<svg width="824pt" height="265pt"
 viewBox="0.00 0.00 824.34 265.00" xmlns="http://www.w3.org/2000/svg" xmlns:xlink="http://www.w3.org/1999/xlink">
<g id="graph0" class="graph" transform="scale(1 1) rotate(0) translate(4 261)">
<title>models_diagram</title>
<polygon fill="none" stroke="none" points="-4,4 -4,-261 820.343,-261 820.343,4 -4,4"/>
<!-- _diagram_info -->
<g id="node1" class="node"><title>_diagram_info</title>
<text text-anchor="start" x="8" y="-153.1" font-family="Times,serif" font-size="13.00">Models diagram</text>
<text text-anchor="start" x="8" y="-139.1" font-family="Times,serif" font-size="13.00">Date: Sep 29 2018 &#45; 15:41</text>
<text text-anchor="start" x="8" y="-125.1" font-family="Times,serif" font-size="13.00">Migration version: 20180915183741</text>
<text text-anchor="start" x="8" y="-111.1" font-family="Times,serif" font-size="13.00">Generated by RailRoady 1.5.3</text>
<text text-anchor="start" x="8" y="-97.1" font-family="Times,serif" font-size="13.00">http://railroady.prestonlee.com</text>
</g>
<!-- Usuario -->
<g id="node2" class="node"><title>Usuario</title>
<path fill="none" stroke="black" d="M244,-15.5C244,-15.5 420,-15.5 420,-15.5 426,-15.5 432,-21.5 432,-27.5 432,-27.5 432,-229.5 432,-229.5 432,-235.5 426,-241.5 420,-241.5 420,-241.5 244,-241.5 244,-241.5 238,-241.5 232,-235.5 232,-229.5 232,-229.5 232,-27.5 232,-27.5 232,-21.5 238,-15.5 244,-15.5"/>
<text text-anchor="middle" x="332" y="-226.3" font-family="Times,serif" font-size="14.00">Usuario</text>
<polyline fill="none" stroke="black" points="232,-218.5 432,-218.5 "/>
<text text-anchor="start" x="240" y="-203.3" font-family="Times,serif" font-size="14.00">id :integer</text>
<text text-anchor="start" x="240" y="-188.3" font-family="Times,serif" font-size="14.00">email :varchar</text>
<text text-anchor="start" x="240" y="-173.3" font-family="Times,serif" font-size="14.00">encrypted_password :varchar</text>
<text text-anchor="start" x="240" y="-158.3" font-family="Times,serif" font-size="14.00">reset_password_token :varchar</text>
<text text-anchor="start" x="240" y="-143.3" font-family="Times,serif" font-size="14.00">reset_password_sent_at :datetime</text>
<text text-anchor="start" x="240" y="-128.3" font-family="Times,serif" font-size="14.00">remember_created_at :datetime</text>
<text text-anchor="start" x="240" y="-113.3" font-family="Times,serif" font-size="14.00">sign_in_count :integer</text>
<text text-anchor="start" x="240" y="-98.3" font-family="Times,serif" font-size="14.00">current_sign_in_at :datetime</text>
<text text-anchor="start" x="240" y="-83.3" font-family="Times,serif" font-size="14.00">last_sign_in_at :datetime</text>
<text text-anchor="start" x="240" y="-68.3" font-family="Times,serif" font-size="14.00">current_sign_in_ip :varchar</text>
<text text-anchor="start" x="240" y="-53.3" font-family="Times,serif" font-size="14.00">last_sign_in_ip :varchar</text>
<text text-anchor="start" x="240" y="-38.3" font-family="Times,serif" font-size="14.00">created_at :datetime</text>
<text text-anchor="start" x="240" y="-23.3" font-family="Times,serif" font-size="14.00">updated_at :datetime</text>
</g>
<!-- Produto -->
<g id="node3" class="node"><title>Produto</title>
<path fill="none" stroke="black" d="M462,-0.5C462,-0.5 632,-0.5 632,-0.5 638,-0.5 644,-6.5 644,-12.5 644,-12.5 644,-244.5 644,-244.5 644,-250.5 638,-256.5 632,-256.5 632,-256.5 462,-256.5 462,-256.5 456,-256.5 450,-250.5 450,-244.5 450,-244.5 450,-12.5 450,-12.5 450,-6.5 456,-0.5 462,-0.5"/>
<text text-anchor="middle" x="547" y="-241.3" font-family="Times,serif" font-size="14.00">Produto</text>
<polyline fill="none" stroke="black" points="450,-233.5 644,-233.5 "/>
<text text-anchor="start" x="458" y="-218.3" font-family="Times,serif" font-size="14.00">id :integer</text>
<text text-anchor="start" x="458" y="-203.3" font-family="Times,serif" font-size="14.00">nome :varchar</text>
<text text-anchor="start" x="458" y="-188.3" font-family="Times,serif" font-size="14.00">descricao :text</text>
<text text-anchor="start" x="458" y="-173.3" font-family="Times,serif" font-size="14.00">valor_locacao_cents :integer</text>
<text text-anchor="start" x="458" y="-158.3" font-family="Times,serif" font-size="14.00">valor_locacao_currency :varchar</text>
<text text-anchor="start" x="458" y="-143.3" font-family="Times,serif" font-size="14.00">nota :float</text>
<text text-anchor="start" x="458" y="-128.3" font-family="Times,serif" font-size="14.00">plataforma :varchar</text>
<text text-anchor="start" x="458" y="-113.3" font-family="Times,serif" font-size="14.00">genero :varchar</text>
<text text-anchor="start" x="458" y="-98.3" font-family="Times,serif" font-size="14.00">estudio :varchar</text>
<text text-anchor="start" x="458" y="-83.3" font-family="Times,serif" font-size="14.00">idade_recomendada :integer</text>
<text text-anchor="start" x="458" y="-68.3" font-family="Times,serif" font-size="14.00">data_lancamento :date</text>
<text text-anchor="start" x="458" y="-53.3" font-family="Times,serif" font-size="14.00">resolucao_maxima :varchar</text>
<text text-anchor="start" x="458" y="-38.3" font-family="Times,serif" font-size="14.00">tipo :integer</text>
<text text-anchor="start" x="458" y="-23.3" font-family="Times,serif" font-size="14.00">created_at :datetime</text>
<text text-anchor="start" x="458" y="-8.3" font-family="Times,serif" font-size="14.00">updated_at :datetime</text>
</g>
<!-- ApplicationRecord -->
<g id="node4" class="node"><title>ApplicationRecord</title>
<ellipse fill="none" stroke="black" cx="739" cy="-128.5" rx="77.1866" ry="18"/>
<text text-anchor="middle" x="739" y="-124.8" font-family="Times,serif" font-size="14.00">ApplicationRecord</text>
</g>
</g>
</svg>
